<svg width="581" height="352" viewBox="0 0 581 352" fill="none" xmlns="http://www.w3.org/2000/svg">
<path d="M0 176C0 79.074 78.462 0.5 175.25 0.5H405.265C502.054 0.5 580.515 79.074 580.515 176V351.5H175.25C78.462 351.5 0 272.926 0 176Z" fill="#4845D2"/>
<path d="M405.265 66.3125H175.25C114.757 66.3125 65.7187 115.421 65.7187 176C65.7187 236.579 114.757 285.688 175.25 285.688H405.265C465.758 285.688 514.797 236.579 514.797 176C514.797 115.421 465.758 66.3125 405.265 66.3125Z" fill="#A5B4FC"/>
<path d="M175.25 230.844C205.496 230.844 230.015 206.289 230.015 176C230.015 145.711 205.496 121.156 175.25 121.156C145.004 121.156 120.484 145.711 120.484 176C120.484 206.289 145.004 230.844 175.25 230.844Z" fill="black"/>
<path d="M153.344 165.031C159.393 165.031 164.297 160.12 164.297 154.062C164.297 148.005 159.393 143.094 153.344 143.094C147.294 143.094 142.391 148.005 142.391 154.062C142.391 160.12 147.294 165.031 153.344 165.031Z" fill="white"/>
<path d="M416.218 230.844C446.465 230.844 470.984 206.289 470.984 176C470.984 145.711 446.465 121.156 416.218 121.156C385.972 121.156 361.453 145.711 361.453 176C361.453 206.289 385.972 230.844 416.218 230.844Z" fill="black"/>
<path d="M394.312 165.031C400.361 165.031 405.265 160.12 405.265 154.062C405.265 148.005 400.361 143.094 394.312 143.094C388.263 143.094 383.359 148.005 383.359 154.062C383.359 160.12 388.263 165.031 394.312 165.031Z" fill="white"/>
</svg>
